<svg width="970" height="1000" viewBox="0 0 970 1000" fill="none" xmlns="http://www.w3.org/2000/svg">
<g clip-path="url(#clip0_0_1)">
<path d="M47.5 17.5H815.396L921.5 141.39V982.5H47.5V17.5Z" fill="white" stroke="black" stroke-width="35"/>
<path d="M330.512 297.68C330.512 322.693 336.112 335.2 347.312 335.2C355.899 335.2 364.579 327.64 373.352 312.52C382.312 297.4 389.685 279.013 395.472 257.36C401.259 235.52 404.339 214.893 404.712 195.48C395.565 188.013 387.259 178.307 379.792 166.36C372.325 154.413 368.592 146.76 368.592 143.4C368.592 139.853 370.179 136.4 373.352 133.04C376.525 129.493 379.885 127.72 383.432 127.72C391.272 127.72 398.085 133.507 403.872 145.08C409.845 156.653 413.112 170.653 413.672 187.08C420.579 193.053 426.552 196.04 431.592 196.04C436.632 196.04 439.899 194.453 441.392 191.28C443.632 191.28 444.752 192.68 444.752 195.48C444.752 200.707 441.859 204.16 436.072 205.84L431.032 206.4C425.245 206.4 419.459 204.72 413.672 201.36C412.552 222.64 408.912 244.293 402.752 266.32C396.592 288.347 388.472 307.013 378.392 322.32C368.312 337.44 357.952 345 347.312 345C332.379 345 322.019 337.72 316.232 323.16C311.565 311.4 309.232 297.307 309.232 280.88C309.232 276.587 309.419 272.2 309.792 267.72C274.139 332.867 245.672 365.44 224.392 365.44C215.245 365.44 210.672 361.24 210.672 352.84C210.672 352.467 210.672 352 210.672 351.44C232.885 291.333 243.992 240.653 243.992 199.4C243.992 167.48 234.845 151.52 216.552 151.52C204.979 151.52 196.859 156.467 192.192 166.36C190.699 169.533 189.952 172.24 189.952 174.48C189.952 176.72 190.605 177.84 191.912 177.84C191.539 180.453 189.392 181.76 185.472 181.76C181.552 181.76 179.592 179.24 179.592 174.2C179.592 166.547 183.419 159.733 191.072 153.76C198.912 147.787 208.525 144.8 219.912 144.8C248.099 144.8 262.192 166.36 262.192 209.48C262.192 225.533 260.325 243.547 256.592 263.52C252.859 283.307 249.685 297.493 247.072 306.08C244.645 314.48 240.165 329.133 233.632 350.04C233.072 352.093 233.539 353.12 235.032 353.12C236.339 352.933 237.925 352.093 239.792 350.6C252.859 339.213 265.739 323.347 278.432 303C296.725 272.947 310.165 245.413 318.752 220.4C327.899 192.027 336.672 177.84 345.072 177.84C348.805 177.84 350.672 179.8 350.672 183.72C346.192 197.907 340.592 223.853 333.872 261.56C331.632 274.813 330.512 286.853 330.512 297.68ZM385.392 136.4C384.645 136.773 384.272 137.613 384.272 138.92C384.272 140.227 384.552 142.187 385.112 144.8C385.859 147.413 388.099 152.08 391.832 158.8C395.565 165.52 399.672 171.587 404.152 177C402.845 165.427 400.232 155.813 396.312 148.16C392.579 140.32 388.939 136.4 385.392 136.4ZM524.663 264.64C517.57 264.64 514.023 256.893 514.023 241.4C514.023 232.627 515.703 224.413 519.063 216.76C506.37 227.773 492.183 248.307 476.503 278.36C460.823 308.227 452.983 327.733 452.983 336.88C452.983 339.12 451.49 340.24 448.503 340.24C443.09 340.24 440.383 332.867 440.383 318.12C440.383 290.307 443.183 265.107 448.783 242.52C454.383 219.933 461.196 208.64 469.223 208.64C472.77 208.64 474.543 210.693 474.543 214.8C465.956 242.053 459.796 269.96 456.063 298.52H458.023C473.143 263.613 489.85 236.36 508.143 216.76C518.596 205.56 528.116 199.96 536.703 199.96C538.57 199.96 540.063 200.52 541.183 201.64C542.49 202.76 543.143 204.16 543.143 205.84C541.836 207.147 540.25 209.107 538.383 211.72C536.516 214.333 533.996 220.587 530.823 230.48C527.65 240.187 526.063 250.827 526.063 262.4C526.063 263.893 525.596 264.64 524.663 264.64ZM550.227 321.2C550.227 293.573 553.027 268.933 558.627 247.28C564.414 225.627 571.694 214.8 580.467 214.8C584.761 214.8 586.907 217.133 586.907 221.8C585.041 226.653 582.707 233.093 579.907 241.12C577.107 249.147 573.374 263.707 568.707 284.8C564.227 305.707 561.987 324.373 561.987 340.8C561.987 343.413 560.587 344.72 557.787 344.72C552.747 344.72 550.227 336.88 550.227 321.2ZM587.747 188.48C583.827 188.48 581.867 184.747 581.867 177.28C581.867 172.8 583.081 168.133 585.507 163.28C587.934 158.24 591.387 155.72 595.867 155.72C599.601 155.72 601.467 157.867 601.467 162.16C601.467 166.453 598.014 173.64 591.107 183.72L587.747 188.48ZM620.649 223.76C613.369 223.76 609.729 220.773 609.729 214.8C609.729 212.56 610.662 211.16 612.529 210.6C612.716 210.413 612.996 210.32 613.369 210.32C614.489 211.627 616.542 212.28 619.529 212.28C622.702 212.28 627.649 212.093 634.369 211.72C643.142 188.013 651.542 176.16 659.569 176.16C662.742 176.16 664.329 177.933 664.329 181.48C661.342 188.947 657.982 198.56 654.249 210.32C672.729 208.267 684.769 207.24 690.369 207.24C691.862 207.24 692.609 207.987 692.609 209.48C692.609 212.467 690.649 213.96 686.729 213.96C684.676 213.96 672.822 215.92 651.169 219.84C636.422 266.507 629.049 304.307 629.049 333.24C629.049 362.173 634.836 376.64 646.409 376.64C651.076 376.64 655.462 374.587 659.569 370.48C663.676 366.56 666.569 362.64 668.249 358.72C668.996 356.667 670.582 356.107 673.009 357.04C674.129 357.413 674.502 357.973 674.129 358.72C673.009 361.147 671.609 363.947 669.929 367.12C668.249 370.293 664.982 374.213 660.129 378.88C655.276 383.547 650.329 385.88 645.289 385.88C623.076 385.88 611.969 366.56 611.969 327.92C611.969 295.253 618.036 260.347 630.169 223.2C627.556 223.573 624.382 223.76 620.649 223.76ZM758.495 209.2C772.681 209.2 779.775 217.507 779.775 234.12C779.775 243.64 776.601 253.627 770.255 264.08C759.428 281.44 745.055 290.12 727.135 290.12C724.335 290.12 722.001 289.653 720.135 288.72C718.268 287.787 716.868 286.387 715.935 284.52C729.188 284.52 741.321 276.867 752.335 261.56C761.295 249.24 765.775 237.947 765.775 227.68C765.775 220.027 762.695 216.2 756.535 216.2C744.215 216.2 732.735 225.813 722.095 245.04C710.708 265.947 705.015 287.413 705.015 309.44C705.015 328.107 710.335 339.307 720.975 343.04C723.028 343.787 725.641 344.16 728.815 344.16C731.988 344.16 735.348 343.413 738.895 341.92C742.441 340.24 745.428 338.28 747.855 336.04C752.708 331.56 756.721 326.613 759.895 321.2C760.641 319.707 762.041 318.96 764.095 318.96C767.455 318.96 769.041 319.52 768.855 320.64C768.295 322.693 766.148 326.147 762.415 331C758.868 335.853 755.508 339.773 752.335 342.76C749.348 345.56 745.335 348.08 740.295 350.32C735.441 352.747 730.495 353.96 725.455 353.96C705.668 353.96 693.068 344.627 687.655 325.96C685.975 319.613 685.135 313.08 685.135 306.36C685.135 293.853 688.028 280.227 693.815 265.48C702.961 243.08 715.561 226.933 731.615 217.04C740.388 211.813 749.348 209.2 758.495 209.2Z" fill="black"/>
<path d="M447.696 500H428.897V426.88H400.516V410.767H476.016V426.88H447.696V500ZM525.149 410.156C532.27 410.156 538.374 411.357 543.46 413.757C548.587 416.158 552.778 419.474 556.033 423.706C559.288 427.897 561.689 432.719 563.235 438.171C564.782 443.583 565.555 449.341 565.555 455.444C565.555 461.548 564.761 467.326 563.174 472.778C561.628 478.19 559.227 482.992 555.972 487.183C552.717 491.374 548.526 494.67 543.399 497.07C538.313 499.471 532.229 500.671 525.149 500.671C518.069 500.671 511.966 499.471 506.839 497.07C501.753 494.67 497.562 491.374 494.266 487.183C490.97 482.992 488.528 478.19 486.941 472.778C485.395 467.326 484.622 461.548 484.622 455.444C484.622 449.341 485.395 443.583 486.941 438.171C488.528 432.719 490.949 427.897 494.205 423.706C497.5 419.474 501.692 416.158 506.778 413.757C511.905 411.357 518.029 410.156 525.149 410.156ZM525.149 426.392C520.836 426.392 517.052 427.47 513.797 429.626C510.582 431.742 508.08 434.957 506.29 439.27C504.499 443.542 503.604 448.934 503.604 455.444C503.604 461.955 504.479 467.367 506.229 471.68C508.019 475.952 510.521 479.167 513.736 481.323C516.991 483.439 520.796 484.497 525.149 484.497C529.544 484.497 533.348 483.439 536.563 481.323C539.778 479.167 542.26 475.952 544.009 471.68C545.8 467.367 546.695 461.955 546.695 455.444C546.695 448.934 545.8 443.542 544.009 439.27C542.219 434.957 539.696 431.742 536.441 429.626C533.226 427.47 529.463 426.392 525.149 426.392Z" fill="black"/>
<rect y="568" width="970" height="295" fill="#E61B23"/>
<path d="M229.507 833H198.062V594.255H288.809C312.165 594.255 330.166 600.521 342.812 613.054C355.573 625.586 361.953 642.847 361.953 664.836C361.953 686.711 355.573 703.972 342.812 716.618C330.166 729.265 312.165 735.588 288.809 735.588H229.507V833ZM229.507 621.428V708.586H288.125C302.253 708.586 312.848 704.541 319.912 696.452C327.09 688.249 330.679 677.653 330.679 664.665C330.679 651.677 327.09 641.252 319.912 633.391C312.848 625.415 302.253 621.428 288.125 621.428H229.507ZM592.495 713.713C592.495 730.347 590.33 745.899 586.001 760.368C581.672 774.724 575.063 787.37 566.177 798.308C557.404 809.245 546.296 817.79 532.852 823.942C519.408 829.981 503.514 833 485.171 833H411.855V594.255H485.171C503.514 594.255 519.408 597.331 532.852 603.483C546.296 609.636 557.404 618.181 566.177 629.118C575.063 639.942 581.672 652.645 586.001 667.229C590.33 681.698 592.495 697.193 592.495 713.713ZM560.879 713.713C560.879 694.8 558.258 678.451 553.018 664.665C547.777 650.879 539.574 640.227 528.408 632.707C517.243 625.188 502.83 621.428 485.171 621.428H443.13V806.169H485.171C502.83 806.169 517.243 802.409 528.408 794.89C539.574 787.37 547.777 776.717 553.018 762.932C558.258 749.032 560.879 732.626 560.879 713.713ZM677.261 833H645.986V594.255H788.687V621.428H677.261V708.928H775.186V734.221H677.261V833Z" fill="white"/>
<path d="M229.507 833V834H230.507V833H229.507ZM198.062 833H197.062V834H198.062V833ZM198.062 594.255V593.255H197.062V594.255H198.062ZM342.812 613.054L342.109 613.764L342.112 613.767L342.812 613.054ZM342.812 716.618L342.109 715.908L342.105 715.911L342.812 716.618ZM229.507 735.588V734.588H228.507V735.588H229.507ZM229.507 621.428V620.428H228.507V621.428H229.507ZM229.507 708.586H228.507V709.586H229.507V708.586ZM319.912 696.452L319.16 695.794L319.159 695.794L319.912 696.452ZM319.912 633.391L319.164 634.054L319.169 634.059L319.174 634.065L319.912 633.391ZM229.507 832H198.062V834H229.507V832ZM199.062 833V594.255H197.062V833H199.062ZM198.062 595.255H288.809V593.255H198.062V595.255ZM288.809 595.255C311.986 595.255 329.702 601.47 342.109 613.764L343.516 612.343C330.63 599.573 312.343 593.255 288.809 593.255V595.255ZM342.112 613.767C354.639 626.07 360.953 643.05 360.953 664.836H362.953C362.953 642.644 356.507 625.102 343.513 612.34L342.112 613.767ZM360.953 664.836C360.953 686.506 354.64 703.489 342.109 715.908L343.516 717.328C356.506 704.455 362.953 686.916 362.953 664.836H360.953ZM342.105 715.911C329.699 728.318 311.984 734.588 288.809 734.588V736.588C312.345 736.588 330.633 730.212 343.52 717.325L342.105 715.911ZM288.809 734.588H229.507V736.588H288.809V734.588ZM228.507 735.588V833H230.507V735.588H228.507ZM228.507 621.428V708.586H230.507V621.428H228.507ZM229.507 709.586H288.125V707.586H229.507V709.586ZM288.125 709.586C302.445 709.586 313.356 705.48 320.665 697.11L319.159 695.794C312.34 703.603 302.061 707.586 288.125 707.586V709.586ZM320.665 697.111C328.031 688.692 331.679 677.847 331.679 664.665H329.679C329.679 677.46 326.148 687.806 319.16 695.794L320.665 697.111ZM331.679 664.665C331.679 651.485 328.032 640.801 320.651 632.716L319.174 634.065C326.148 641.703 329.679 651.869 329.679 664.665H331.679ZM320.661 632.728C313.35 624.474 302.44 620.428 288.125 620.428V622.428C302.065 622.428 312.346 626.357 319.164 634.054L320.661 632.728ZM288.125 620.428H229.507V622.428H288.125V620.428ZM586.001 760.368L586.958 760.657L586.959 760.655L586.001 760.368ZM566.177 798.308L565.401 797.677L565.397 797.682L566.177 798.308ZM532.852 823.942L533.261 824.855L533.268 824.852L532.852 823.942ZM411.855 833H410.855V834H411.855V833ZM411.855 594.255V593.255H410.855V594.255H411.855ZM566.177 629.118L565.397 629.744L565.404 629.753L566.177 629.118ZM586.001 667.229L585.042 667.513L585.043 667.515L586.001 667.229ZM553.018 664.665L552.083 665.02L553.018 664.665ZM443.13 621.428V620.428H442.13V621.428H443.13ZM443.13 806.169H442.13V807.169H443.13V806.169ZM553.018 762.932L553.952 763.287L553.953 763.284L553.018 762.932ZM591.495 713.713C591.495 730.26 589.342 745.714 585.043 760.082L586.959 760.655C591.319 746.084 593.495 730.434 593.495 713.713H591.495ZM585.044 760.079C580.749 774.318 574.2 786.847 565.401 797.677L566.953 798.938C575.927 787.893 582.594 775.129 586.958 760.657L585.044 760.079ZM565.397 797.682C556.727 808.491 545.746 816.942 532.435 823.033L533.268 824.852C546.846 818.638 558.081 809.999 566.957 798.933L565.397 797.682ZM532.442 823.03C519.154 828.998 503.406 832 485.171 832V834C503.622 834 519.661 830.963 533.261 824.855L532.442 823.03ZM485.171 832H411.855V834H485.171V832ZM412.855 833V594.255H410.855V833H412.855ZM411.855 595.255H485.171V593.255H411.855V595.255ZM485.171 595.255C503.404 595.255 519.149 598.313 532.435 604.393L533.268 602.574C519.666 596.349 503.624 593.255 485.171 593.255V595.255ZM532.435 604.393C545.746 610.484 556.727 618.935 565.397 629.744L566.957 628.492C558.081 617.427 546.846 608.788 533.268 602.574L532.435 604.393ZM565.404 629.753C574.199 640.465 580.748 653.047 585.042 667.513L586.96 666.944C582.596 652.244 575.928 639.419 566.95 628.484L565.404 629.753ZM585.043 667.515C589.342 681.883 591.495 697.281 591.495 713.713H593.495C593.495 697.105 591.319 681.513 586.959 666.942L585.043 667.515ZM561.879 713.713C561.879 694.711 559.247 678.236 553.952 664.31L552.083 665.02C557.27 678.666 559.879 694.889 559.879 713.713H561.879ZM553.952 664.31C548.645 650.35 540.32 639.524 528.967 631.878L527.85 633.536C538.827 640.93 546.908 651.408 552.083 665.02L553.952 664.31ZM528.967 631.878C517.592 624.217 502.968 620.428 485.171 620.428V622.428C502.693 622.428 516.894 626.158 527.85 633.536L528.967 631.878ZM485.171 620.428H443.13V622.428H485.171V620.428ZM442.13 621.428V806.169H444.13V621.428H442.13ZM443.13 807.169H485.171V805.169H443.13V807.169ZM485.171 807.169C502.968 807.169 517.592 803.38 528.967 795.719L527.85 794.06C516.894 801.439 502.693 805.169 485.171 805.169V807.169ZM528.967 795.719C540.32 788.073 548.645 777.247 553.952 763.287L552.083 762.576C546.908 776.188 538.827 786.667 527.85 794.06L528.967 795.719ZM553.953 763.284C559.247 749.246 561.879 732.715 561.879 713.713H559.879C559.879 732.537 557.27 748.818 552.082 762.579L553.953 763.284ZM677.261 833V834H678.261V833H677.261ZM645.986 833H644.986V834H645.986V833ZM645.986 594.255V593.255H644.986V594.255H645.986ZM788.687 594.255H789.687V593.255H788.687V594.255ZM788.687 621.428V622.428H789.687V621.428H788.687ZM677.261 621.428V620.428H676.261V621.428H677.261ZM677.261 708.928H676.261V709.928H677.261V708.928ZM775.186 708.928H776.186V707.928H775.186V708.928ZM775.186 734.221V735.221H776.186V734.221H775.186ZM677.261 734.221V733.221H676.261V734.221H677.261ZM677.261 832H645.986V834H677.261V832ZM646.986 833V594.255H644.986V833H646.986ZM645.986 595.255H788.687V593.255H645.986V595.255ZM787.687 594.255V621.428H789.687V594.255H787.687ZM788.687 620.428H677.261V622.428H788.687V620.428ZM676.261 621.428V708.928H678.261V621.428H676.261ZM677.261 709.928H775.186V707.928H677.261V709.928ZM774.186 708.928V734.221H776.186V708.928H774.186ZM775.186 733.221H677.261V735.221H775.186V733.221ZM676.261 734.221V833H678.261V734.221H676.261Z" fill="white"/>
</g>
<defs>
<clipPath id="clip0_0_1">
<rect width="970" height="1000" fill="white"/>
</clipPath>
</defs>
</svg>
