<svg width="18" height="24" viewBox="0 0 18 24" fill="none" xmlns="http://www.w3.org/2000/svg">
<path d="M0.0227273 24V0.727272H9.34091C11.053 0.727272 12.4811 0.98106 13.625 1.48864C14.7689 1.99621 15.6288 2.70076 16.2045 3.60227C16.7803 4.49621 17.0682 5.52652 17.0682 6.69318C17.0682 7.60227 16.8864 8.40152 16.5227 9.09091C16.1591 9.77273 15.6591 10.3333 15.0227 10.7727C14.3939 11.2045 13.6742 11.5114 12.8636 11.6932V11.9205C13.75 11.9583 14.5795 12.2083 15.3523 12.6705C16.1326 13.1326 16.7652 13.7803 17.25 14.6136C17.7348 15.4394 17.9773 16.4242 17.9773 17.5682C17.9773 18.803 17.6705 19.9053 17.0568 20.875C16.4508 21.8371 15.553 22.5985 14.3636 23.1591C13.1742 23.7197 11.7083 24 9.96591 24H0.0227273ZM4.94318 19.9773H8.95455C10.3258 19.9773 11.3258 19.7159 11.9545 19.1932C12.5833 18.6629 12.8977 17.9583 12.8977 17.0795C12.8977 16.4356 12.7424 15.8674 12.4318 15.375C12.1212 14.8826 11.678 14.4962 11.1023 14.2159C10.5341 13.9356 9.85606 13.7955 9.06818 13.7955H4.94318V19.9773ZM4.94318 10.4659H8.59091C9.26515 10.4659 9.86364 10.3485 10.3864 10.1136C10.9167 9.87121 11.3333 9.5303 11.6364 9.09091C11.947 8.65152 12.1023 8.125 12.1023 7.51136C12.1023 6.67045 11.803 5.99242 11.2045 5.47727C10.6136 4.96212 9.77273 4.70454 8.68182 4.70454H4.94318V10.4659Z" fill="black"/>
</svg>
