<svg width="11" height="3" viewBox="0 0 11 3" fill="none" xmlns="http://www.w3.org/2000/svg">
<path d="M1.37047 2.08523C1.10769 2.08523 0.88219 1.99112 0.69398 1.80291C0.50577 1.6147 0.411665 1.3892 0.411665 1.12642C0.411665 0.863636 0.50577 0.638139 0.69398 0.449929C0.88219 0.261719 1.10769 0.167613 1.37047 0.167613C1.63326 0.167613 1.85875 0.261719 2.04696 0.449929C2.23517 0.638139 2.32928 0.863636 2.32928 1.12642C2.32928 1.30043 2.28489 1.46023 2.19611 1.60582C2.11088 1.75142 1.99547 1.86861 1.84988 1.95739C1.70783 2.04261 1.54803 2.08523 1.37047 2.08523ZM5.50133 2.08523C5.23855 2.08523 5.01305 1.99112 4.82484 1.80291C4.63663 1.6147 4.54252 1.3892 4.54252 1.12642C4.54252 0.863636 4.63663 0.638139 4.82484 0.449929C5.01305 0.261719 5.23855 0.167613 5.50133 0.167613C5.76412 0.167613 5.98961 0.261719 6.17782 0.449929C6.36603 0.638139 6.46014 0.863636 6.46014 1.12642C6.46014 1.30043 6.41575 1.46023 6.32697 1.60582C6.24174 1.75142 6.12633 1.86861 5.98074 1.95739C5.83869 2.04261 5.67889 2.08523 5.50133 2.08523ZM9.63219 2.08523C9.36941 2.08523 9.14391 1.99112 8.9557 1.80291C8.76749 1.6147 8.67338 1.3892 8.67338 1.12642C8.67338 0.863636 8.76749 0.638139 8.9557 0.449929C9.14391 0.261719 9.36941 0.167613 9.63219 0.167613C9.89498 0.167613 10.1205 0.261719 10.3087 0.449929C10.4969 0.638139 10.591 0.863636 10.591 1.12642C10.591 1.30043 10.5466 1.46023 10.4578 1.60582C10.3726 1.75142 10.2572 1.86861 10.1116 1.95739C9.96955 2.04261 9.80975 2.08523 9.63219 2.08523Z" fill="black"/>
</svg>
