<svg width="8" height="25" viewBox="0 0 8 25" fill="none" xmlns="http://www.w3.org/2000/svg">
<path d="M0.703125 25L3.61222 7.54545H6.29403L3.38494 25H0.703125ZM5.77131 4.59091C5.24858 4.59091 4.79782 4.41288 4.41903 4.05682C4.04782 3.70076 3.86222 3.27273 3.86222 2.77273C3.86222 2.27273 4.04782 1.8447 4.41903 1.48864C4.79782 1.13257 5.24858 0.954544 5.77131 0.954544C6.29403 0.954544 6.741 1.13257 7.11222 1.48864C7.491 1.8447 7.6804 2.27273 7.6804 2.77273C7.6804 3.27273 7.491 3.70076 7.11222 4.05682C6.741 4.41288 6.29403 4.59091 5.77131 4.59091Z" fill="black"/>
</svg>
