<svg width="20" height="23" viewBox="0 0 20 23" fill="none" xmlns="http://www.w3.org/2000/svg">
<line x1="5" y1="3.3" x2="19.7" y2="3.3" stroke="black" stroke-width="1.4"/>
<line x1="5" y1="11.3" x2="19.7" y2="11.3" stroke="black" stroke-width="1.4"/>
<line x1="5" y1="19.3" x2="19.7" y2="19.3" stroke="black" stroke-width="1.4"/>
<path d="M2.93066 6H2.41504V3.3252C2.41504 3.24121 2.41504 3.15137 2.41504 3.05566C2.41699 2.95996 2.41895 2.86523 2.4209 2.77148C2.4248 2.67578 2.42773 2.58496 2.42969 2.49902C2.43359 2.41113 2.43652 2.33398 2.43848 2.26758C2.40527 2.30273 2.37598 2.33301 2.35059 2.3584C2.3252 2.38379 2.29883 2.4082 2.27148 2.43164C2.24609 2.45508 2.21875 2.48047 2.18945 2.50781C2.16016 2.5332 2.125 2.56348 2.08398 2.59863L1.65039 2.95312L1.36914 2.59277L2.49121 1.7168H2.93066V6Z" fill="black"/>
<path d="M3.80078 14H1.12891V13.543L2.1543 12.4268C2.30078 12.2686 2.43164 12.124 2.54688 11.9932C2.66211 11.8623 2.75977 11.7344 2.83984 11.6094C2.92188 11.4844 2.98438 11.3594 3.02734 11.2344C3.07031 11.1074 3.0918 10.9697 3.0918 10.8213C3.0918 10.7061 3.0752 10.6045 3.04199 10.5166C3.00879 10.4287 2.96094 10.3545 2.89844 10.2939C2.83789 10.2314 2.76562 10.1846 2.68164 10.1533C2.59766 10.1221 2.50391 10.1064 2.40039 10.1064C2.21484 10.1064 2.04688 10.1445 1.89648 10.2207C1.74805 10.2949 1.60645 10.3906 1.47168 10.5078L1.17285 10.1592C1.25098 10.0889 1.33496 10.0234 1.4248 9.96289C1.51465 9.90039 1.61133 9.84668 1.71484 9.80176C1.81836 9.75684 1.92773 9.72168 2.04297 9.69629C2.1582 9.66895 2.2793 9.65527 2.40625 9.65527C2.59375 9.65527 2.7627 9.68164 2.91309 9.73438C3.06543 9.78711 3.19434 9.86328 3.2998 9.96289C3.40527 10.0605 3.48633 10.1807 3.54297 10.3232C3.60156 10.4639 3.63086 10.623 3.63086 10.8008C3.63086 10.9668 3.60449 11.125 3.55176 11.2754C3.50098 11.4258 3.42969 11.5742 3.33789 11.7207C3.24805 11.8652 3.13965 12.0107 3.0127 12.1572C2.8877 12.3037 2.75195 12.4561 2.60547 12.6143L1.78223 13.4902V13.5137H3.80078V14Z" fill="black"/>
<path d="M3.66309 18.7188C3.66309 18.8613 3.64062 18.9912 3.5957 19.1084C3.55078 19.2256 3.4873 19.3271 3.40527 19.4131C3.3252 19.499 3.22852 19.5703 3.11523 19.627C3.00195 19.6816 2.87598 19.7207 2.7373 19.7441V19.7617C3.08301 19.8047 3.3457 19.915 3.52539 20.0928C3.70508 20.2686 3.79492 20.498 3.79492 20.7812C3.79492 20.9688 3.7627 21.1406 3.69824 21.2969C3.63574 21.4531 3.54004 21.5879 3.41113 21.7012C3.28223 21.8145 3.11914 21.9023 2.92188 21.9648C2.72461 22.0273 2.49121 22.0586 2.22168 22.0586C2.00879 22.0586 1.80762 22.042 1.61816 22.0088C1.43066 21.9756 1.25391 21.915 1.08789 21.8271V21.3291C1.25781 21.4189 1.44141 21.4883 1.63867 21.5371C1.83789 21.5859 2.02832 21.6104 2.20996 21.6104C2.38965 21.6104 2.54492 21.5908 2.67578 21.5518C2.80664 21.5127 2.91406 21.457 2.99805 21.3848C3.08398 21.3125 3.14648 21.2236 3.18555 21.1182C3.22656 21.0127 3.24707 20.8945 3.24707 20.7637C3.24707 20.6309 3.2207 20.5176 3.16797 20.4238C3.11719 20.3281 3.04395 20.25 2.94824 20.1895C2.85254 20.127 2.73535 20.0811 2.59668 20.0518C2.45996 20.0225 2.30469 20.0078 2.13086 20.0078H1.74121V19.5654H2.13086C2.28906 19.5654 2.42969 19.5459 2.55273 19.5068C2.67578 19.4678 2.77832 19.4121 2.86035 19.3398C2.94434 19.2676 3.00781 19.1816 3.05078 19.082C3.09375 18.9824 3.11523 18.873 3.11523 18.7539C3.11523 18.6523 3.09766 18.5615 3.0625 18.4814C3.02734 18.4014 2.97754 18.334 2.91309 18.2793C2.84863 18.2227 2.77148 18.1797 2.68164 18.1504C2.5918 18.1211 2.49219 18.1064 2.38281 18.1064C2.17383 18.1064 1.98926 18.1396 1.8291 18.2061C1.6709 18.2705 1.51953 18.3555 1.375 18.4609L1.10547 18.0947C1.17969 18.0342 1.26172 17.9775 1.35156 17.9248C1.44336 17.8721 1.54297 17.8262 1.65039 17.7871C1.75781 17.7461 1.87207 17.7139 1.99316 17.6904C2.11621 17.667 2.24609 17.6553 2.38281 17.6553C2.59375 17.6553 2.77832 17.6816 2.93652 17.7344C3.09668 17.7871 3.23047 17.8613 3.33789 17.957C3.44531 18.0508 3.52637 18.1631 3.58105 18.2939C3.63574 18.4229 3.66309 18.5645 3.66309 18.7188Z" fill="black"/>
</svg>
