<svg width="27" height="28" viewBox="0 0 27 28" fill="none" xmlns="http://www.w3.org/2000/svg">
<path d="M19.5602 7.19999C19.4055 5.89374 18.7782 4.87968 17.6782 4.1578C16.5782 3.43592 15.229 3.07499 13.6305 3.07499C12.4618 3.07499 11.4391 3.26405 10.5625 3.64217C9.69458 4.0203 9.01567 4.54022 8.52583 5.20194C8.04458 5.86366 7.80395 6.61561 7.80395 7.4578C7.80395 8.16249 7.97153 8.76835 8.30669 9.27538C8.65044 9.77382 9.08872 10.1906 9.62153 10.5258C10.1543 10.8523 10.7129 11.123 11.2973 11.3379C11.8817 11.5441 12.4188 11.7117 12.9086 11.8406L15.5899 12.5625C16.2774 12.743 17.0422 12.9922 17.8844 13.3101C18.7352 13.6281 19.5473 14.0621 20.3208 14.6121C21.1028 15.1535 21.7473 15.8496 22.2544 16.7004C22.7614 17.5512 23.0149 18.5953 23.0149 19.8328C23.0149 21.2594 22.6411 22.5484 21.8934 23.7C21.1543 24.8516 20.0715 25.7668 18.645 26.4457C17.227 27.1246 15.504 27.4641 13.4758 27.4641C11.5852 27.4641 9.94809 27.159 8.5645 26.5488C7.1895 25.9387 6.10669 25.0879 5.31606 23.9965C4.53403 22.9051 4.09145 21.6375 3.98833 20.1937H7.28833C7.37426 21.1906 7.70942 22.0156 8.2938 22.6687C8.88677 23.3133 9.63442 23.7945 10.5368 24.1125C11.4477 24.4219 12.4274 24.5766 13.4758 24.5766C14.6961 24.5766 15.7918 24.3789 16.7629 23.9836C17.734 23.5797 18.5032 23.0211 19.0704 22.3078C19.6376 21.5859 19.9211 20.7437 19.9211 19.7812C19.9211 18.9047 19.6762 18.1914 19.1864 17.6414C18.6965 17.0914 18.052 16.6445 17.2528 16.3008C16.4536 15.957 15.5899 15.6562 14.6618 15.3984L11.4133 14.4703C9.35083 13.8773 7.71801 13.0309 6.51489 11.9309C5.31176 10.8309 4.7102 9.3914 4.7102 7.61249C4.7102 6.13436 5.10981 4.8453 5.90903 3.7453C6.71684 2.63671 7.79966 1.77733 9.15747 1.16717C10.5239 0.548423 12.0493 0.239048 13.7336 0.239048C15.4352 0.239048 16.9477 0.544126 18.2711 1.15428C19.5946 1.75585 20.643 2.58085 21.4165 3.62928C22.1985 4.67772 22.611 5.86796 22.654 7.19999H19.5602Z" fill="black"/>
<line x1="1" y1="15" x2="27" y2="15" stroke="black" stroke-width="2"/>
</svg>
