<svg width="970" height="1000" viewBox="0 0 970 1000" fill="none" xmlns="http://www.w3.org/2000/svg">
<g clip-path="url(#clip0_0_1)">
<path d="M47.5 17.5H815.396L921.5 141.39V982.5H47.5V17.5Z" fill="white" stroke="black" stroke-width="35"/>
<path d="M110.631 890.239C95.7836 894.218 82.1971 880.631 86.1755 865.784L137.273 675.085L301.33 839.142L110.631 890.239Z" fill="black" stroke="black" stroke-width="1.664"/>
<rect x="320.293" y="822.217" width="234.624" height="667.264" transform="rotate(-135 320.293 822.217)" fill="black"/>
<path d="M809.769 332.741L643.865 166.837L719.169 91.5325C732.165 78.5359 753.237 78.5359 766.234 91.5325L885.073 210.372C898.07 223.368 898.07 244.44 885.073 257.437L809.769 332.741Z" fill="black"/>
<rect x="6" y="354" width="970" height="295" fill="#E61B23"/>
<path d="M235.507 619H204.062V380.255H294.809C318.165 380.255 336.166 386.521 348.812 399.054C361.573 411.586 367.953 428.847 367.953 450.836C367.953 472.711 361.573 489.972 348.812 502.618C336.166 515.265 318.165 521.588 294.809 521.588H235.507V619ZM235.507 407.428V494.586H294.125C308.253 494.586 318.848 490.541 325.912 482.452C333.09 474.249 336.679 463.653 336.679 450.665C336.679 437.677 333.09 427.252 325.912 419.391C318.848 411.415 308.253 407.428 294.125 407.428H235.507ZM598.495 499.713C598.495 516.347 596.33 531.899 592.001 546.368C587.672 560.724 581.063 573.37 572.177 584.308C563.404 595.245 552.296 603.79 538.852 609.942C525.408 615.981 509.514 619 491.171 619H417.855V380.255H491.171C509.514 380.255 525.408 383.331 538.852 389.483C552.296 395.636 563.404 404.181 572.177 415.118C581.063 425.942 587.672 438.645 592.001 453.229C596.33 467.698 598.495 483.193 598.495 499.713ZM566.879 499.713C566.879 480.8 564.258 464.451 559.018 450.665C553.777 436.879 545.574 426.227 534.408 418.707C523.243 411.188 508.83 407.428 491.171 407.428H449.13V592.169H491.171C508.83 592.169 523.243 588.409 534.408 580.89C545.574 573.37 553.777 562.717 559.018 548.932C564.258 535.032 566.879 518.626 566.879 499.713ZM683.261 619H651.986V380.255H794.687V407.428H683.261V494.928H781.186V520.221H683.261V619Z" fill="white"/>
<path d="M235.507 619V620H236.507V619H235.507ZM204.062 619H203.062V620H204.062V619ZM204.062 380.255V379.255H203.062V380.255H204.062ZM348.812 399.054L348.109 399.764L348.112 399.767L348.812 399.054ZM348.812 502.618L348.109 501.908L348.105 501.911L348.812 502.618ZM235.507 521.588V520.588H234.507V521.588H235.507ZM235.507 407.428V406.428H234.507V407.428H235.507ZM235.507 494.586H234.507V495.586H235.507V494.586ZM325.912 482.452L325.16 481.794L325.159 481.794L325.912 482.452ZM325.912 419.391L325.164 420.054L325.169 420.059L325.174 420.065L325.912 419.391ZM235.507 618H204.062V620H235.507V618ZM205.062 619V380.255H203.062V619H205.062ZM204.062 381.255H294.809V379.255H204.062V381.255ZM294.809 381.255C317.986 381.255 335.702 387.47 348.109 399.764L349.516 398.343C336.63 385.573 318.343 379.255 294.809 379.255V381.255ZM348.112 399.767C360.639 412.07 366.953 429.05 366.953 450.836H368.953C368.953 428.644 362.507 411.102 349.513 398.34L348.112 399.767ZM366.953 450.836C366.953 472.506 360.64 489.489 348.109 501.908L349.516 503.328C362.506 490.455 368.953 472.916 368.953 450.836H366.953ZM348.105 501.911C335.699 514.318 317.984 520.588 294.809 520.588V522.588C318.345 522.588 336.633 516.212 349.52 503.325L348.105 501.911ZM294.809 520.588H235.507V522.588H294.809V520.588ZM234.507 521.588V619H236.507V521.588H234.507ZM234.507 407.428V494.586H236.507V407.428H234.507ZM235.507 495.586H294.125V493.586H235.507V495.586ZM294.125 495.586C308.445 495.586 319.356 491.48 326.665 483.11L325.159 481.794C318.34 489.603 308.061 493.586 294.125 493.586V495.586ZM326.665 483.111C334.031 474.692 337.679 463.847 337.679 450.665H335.679C335.679 463.46 332.148 473.806 325.16 481.794L326.665 483.111ZM337.679 450.665C337.679 437.485 334.032 426.801 326.651 418.716L325.174 420.065C332.148 427.703 335.679 437.869 335.679 450.665H337.679ZM326.661 418.728C319.35 410.474 308.44 406.428 294.125 406.428V408.428C308.065 408.428 318.346 412.357 325.164 420.054L326.661 418.728ZM294.125 406.428H235.507V408.428H294.125V406.428ZM592.001 546.368L592.958 546.657L592.959 546.655L592.001 546.368ZM572.177 584.308L571.401 583.677L571.397 583.682L572.177 584.308ZM538.852 609.942L539.261 610.855L539.268 610.852L538.852 609.942ZM417.855 619H416.855V620H417.855V619ZM417.855 380.255V379.255H416.855V380.255H417.855ZM572.177 415.118L571.397 415.744L571.404 415.753L572.177 415.118ZM592.001 453.229L591.042 453.513L591.043 453.515L592.001 453.229ZM559.018 450.665L558.083 451.02L559.018 450.665ZM449.13 407.428V406.428H448.13V407.428H449.13ZM449.13 592.169H448.13V593.169H449.13V592.169ZM559.018 548.932L559.952 549.287L559.953 549.284L559.018 548.932ZM597.495 499.713C597.495 516.26 595.342 531.714 591.043 546.082L592.959 546.655C597.319 532.084 599.495 516.434 599.495 499.713H597.495ZM591.044 546.079C586.749 560.318 580.2 572.847 571.401 583.677L572.953 584.938C581.927 573.893 588.594 561.129 592.958 546.657L591.044 546.079ZM571.397 583.682C562.727 594.491 551.746 602.942 538.435 609.033L539.268 610.852C552.846 604.638 564.081 595.999 572.957 584.933L571.397 583.682ZM538.442 609.03C525.154 614.998 509.406 618 491.171 618V620C509.622 620 525.661 616.963 539.261 610.855L538.442 609.03ZM491.171 618H417.855V620H491.171V618ZM418.855 619V380.255H416.855V619H418.855ZM417.855 381.255H491.171V379.255H417.855V381.255ZM491.171 381.255C509.404 381.255 525.149 384.313 538.435 390.393L539.268 388.574C525.666 382.349 509.624 379.255 491.171 379.255V381.255ZM538.435 390.393C551.746 396.484 562.727 404.935 571.397 415.744L572.957 414.492C564.081 403.427 552.846 394.788 539.268 388.574L538.435 390.393ZM571.404 415.753C580.199 426.465 586.748 439.047 591.042 453.513L592.96 452.944C588.596 438.244 581.928 425.419 572.95 414.484L571.404 415.753ZM591.043 453.515C595.342 467.883 597.495 483.281 597.495 499.713H599.495C599.495 483.105 597.319 467.513 592.959 452.942L591.043 453.515ZM567.879 499.713C567.879 480.711 565.247 464.236 559.952 450.31L558.083 451.02C563.27 464.666 565.879 480.889 565.879 499.713H567.879ZM559.952 450.31C554.645 436.35 546.32 425.524 534.967 417.878L533.85 419.536C544.827 426.93 552.908 437.408 558.083 451.02L559.952 450.31ZM534.967 417.878C523.592 410.217 508.968 406.428 491.171 406.428V408.428C508.693 408.428 522.894 412.158 533.85 419.536L534.967 417.878ZM491.171 406.428H449.13V408.428H491.171V406.428ZM448.13 407.428V592.169H450.13V407.428H448.13ZM449.13 593.169H491.171V591.169H449.13V593.169ZM491.171 593.169C508.968 593.169 523.592 589.38 534.967 581.719L533.85 580.06C522.894 587.439 508.693 591.169 491.171 591.169V593.169ZM534.967 581.719C546.32 574.073 554.645 563.247 559.952 549.287L558.083 548.576C552.908 562.188 544.827 572.667 533.85 580.06L534.967 581.719ZM559.953 549.284C565.247 535.246 567.879 518.715 567.879 499.713H565.879C565.879 518.537 563.27 534.818 558.082 548.579L559.953 549.284ZM683.261 619V620H684.261V619H683.261ZM651.986 619H650.986V620H651.986V619ZM651.986 380.255V379.255H650.986V380.255H651.986ZM794.687 380.255H795.687V379.255H794.687V380.255ZM794.687 407.428V408.428H795.687V407.428H794.687ZM683.261 407.428V406.428H682.261V407.428H683.261ZM683.261 494.928H682.261V495.928H683.261V494.928ZM781.186 494.928H782.186V493.928H781.186V494.928ZM781.186 520.221V521.221H782.186V520.221H781.186ZM683.261 520.221V519.221H682.261V520.221H683.261ZM683.261 618H651.986V620H683.261V618ZM652.986 619V380.255H650.986V619H652.986ZM651.986 381.255H794.687V379.255H651.986V381.255ZM793.687 380.255V407.428H795.687V380.255H793.687ZM794.687 406.428H683.261V408.428H794.687V406.428ZM682.261 407.428V494.928H684.261V407.428H682.261ZM683.261 495.928H781.186V493.928H683.261V495.928ZM780.186 494.928V520.221H782.186V494.928H780.186ZM781.186 519.221H683.261V521.221H781.186V519.221ZM682.261 520.221V619H684.261V520.221H682.261Z" fill="white"/>
</g>
<defs>
<clipPath id="clip0_0_1">
<rect width="970" height="1000" fill="white"/>
</clipPath>
</defs>
</svg>
